<svg width="1280" height="640" viewBox="0 0 1280 640" fill="none" xmlns="http://www.w3.org/2000/svg">
  <defs>
    <linearGradient id="bg" x1="0" y1="0" x2="1280" y2="640" gradientUnits="userSpaceOnUse">
      <stop stop-color="#07111F"/>
      <stop offset="0.55" stop-color="#0E1C30"/>
      <stop offset="1" stop-color="#132C3E"/>
    </linearGradient>
    <radialGradient id="glowA" cx="0" cy="0" r="1" gradientUnits="userSpaceOnUse" gradientTransform="translate(228 196) rotate(32.5) scale(274 219)">
      <stop stop-color="#61D9B8" stop-opacity="0.34"/>
      <stop offset="1" stop-color="#61D9B8" stop-opacity="0"/>
    </radialGradient>
    <radialGradient id="glowB" cx="0" cy="0" r="1" gradientUnits="userSpaceOnUse" gradientTransform="translate(1025 438) rotate(152.4) scale(335 198)">
      <stop stop-color="#4C8DFF" stop-opacity="0.28"/>
      <stop offset="1" stop-color="#4C8DFF" stop-opacity="0"/>
    </radialGradient>
    <linearGradient id="card" x1="0" y1="0" x2="1" y2="1">
      <stop stop-color="#132033" stop-opacity="0.92"/>
      <stop offset="1" stop-color="#0A1424" stop-opacity="0.92"/>
    </linearGradient>
    <filter id="shadow" x="-20%" y="-20%" width="140%" height="140%">
      <feDropShadow dx="0" dy="20" stdDeviation="30" flood-color="#030712" flood-opacity="0.34"/>
    </filter>
  </defs>

  <rect width="1280" height="640" rx="36" fill="url(#bg)"/>
  <rect width="1280" height="640" rx="36" fill="url(#glowA)"/>
  <rect width="1280" height="640" rx="36" fill="url(#glowB)"/>

  <g opacity="0.18">
    <path d="M96 78H1184" stroke="#5EEAD4" stroke-width="1"/>
    <path d="M96 146H1184" stroke="#5EEAD4" stroke-width="1"/>
    <path d="M96 214H1184" stroke="#5EEAD4" stroke-width="1"/>
    <path d="M96 282H1184" stroke="#5EEAD4" stroke-width="1"/>
    <path d="M96 350H1184" stroke="#5EEAD4" stroke-width="1"/>
    <path d="M96 418H1184" stroke="#5EEAD4" stroke-width="1"/>
    <path d="M96 486H1184" stroke="#5EEAD4" stroke-width="1"/>
    <path d="M96 554H1184" stroke="#5EEAD4" stroke-width="1"/>
    <path d="M164 54V586" stroke="#5EEAD4" stroke-width="1"/>
    <path d="M300 54V586" stroke="#5EEAD4" stroke-width="1"/>
    <path d="M436 54V586" stroke="#5EEAD4" stroke-width="1"/>
    <path d="M572 54V586" stroke="#5EEAD4" stroke-width="1"/>
    <path d="M708 54V586" stroke="#5EEAD4" stroke-width="1"/>
    <path d="M844 54V586" stroke="#5EEAD4" stroke-width="1"/>
    <path d="M980 54V586" stroke="#5EEAD4" stroke-width="1"/>
    <path d="M1116 54V586" stroke="#5EEAD4" stroke-width="1"/>
  </g>

  <g filter="url(#shadow)">
    <rect x="72" y="92" width="676" height="456" rx="28" fill="url(#card)" stroke="#203247"/>
    <rect x="784" y="118" width="424" height="170" rx="24" fill="url(#card)" stroke="#24415F"/>
    <rect x="784" y="312" width="424" height="210" rx="24" fill="url(#card)" stroke="#24415F"/>
  </g>

  <text x="116" y="160" fill="#7DD3FC" font-family="Segoe UI, Arial, sans-serif" font-size="18" letter-spacing="2.4">LOCAL-FIRST MULTI-AGENT ORCHESTRATION</text>
  <text x="116" y="236" fill="#F8FAFC" font-family="Segoe UI, Arial, sans-serif" font-size="72" font-weight="700">ForgeFlow</text>

  <text x="116" y="286" fill="#C7D2FE" font-family="Segoe UI, Arial, sans-serif" font-size="28" font-weight="500">
    <tspan x="116" dy="0">Import repositories. Build project memory.</tspan>
    <tspan x="116" dy="34">Execute safely.</tspan>
  </text>

  <text x="116" y="368" fill="#93C5FD" font-family="Segoe UI, Arial, sans-serif" font-size="20" font-weight="600">
    <tspan x="116" dy="0">Intake / Memory / Planner / Coder</tspan>
    <tspan x="116" dy="28">Reviewer / Tester / Debugger</tspan>
  </text>

  <g>
    <rect x="116" y="430" width="188" height="44" rx="22" fill="#61D9B8" fill-opacity="0.14" stroke="#61D9B8"/>
    <text x="210" y="458" text-anchor="middle" fill="#D1FAE5" font-family="Segoe UI, Arial, sans-serif" font-size="16" font-weight="700">Persistent Intake Jobs</text>
    <rect x="320" y="430" width="172" height="44" rx="22" fill="#4C8DFF" fill-opacity="0.14" stroke="#4C8DFF"/>
    <text x="406" y="458" text-anchor="middle" fill="#DBEAFE" font-family="Segoe UI, Arial, sans-serif" font-size="16" font-weight="700">Run Audit Trails</text>
    <rect x="508" y="430" width="156" height="44" rx="22" fill="#F59E0B" fill-opacity="0.14" stroke="#F59E0B"/>
    <text x="586" y="458" text-anchor="middle" fill="#FEF3C7" font-family="Segoe UI, Arial, sans-serif" font-size="16" font-weight="700">Safe Writeback</text>
  </g>

  <text x="820" y="162" fill="#D1FAE5" font-family="Segoe UI, Arial, sans-serif" font-size="20" font-weight="700">Intake Surface</text>
  <text x="820" y="198" fill="#E2E8F0" font-family="Segoe UI, Arial, sans-serif" font-size="16">Existing project import</text>
  <text x="820" y="224" fill="#E2E8F0" font-family="Segoe UI, Arial, sans-serif" font-size="16">New project brainstorming</text>
  <text x="820" y="250" fill="#E2E8F0" font-family="Segoe UI, Arial, sans-serif" font-size="16">Heuristic fallback + model refine</text>

  <text x="820" y="356" fill="#DBEAFE" font-family="Segoe UI, Arial, sans-serif" font-size="20" font-weight="700">Execution Surface</text>
  <text x="820" y="392" fill="#E2E8F0" font-family="Segoe UI, Arial, sans-serif" font-size="16">Workspace isolation</text>
  <text x="820" y="418" fill="#E2E8F0" font-family="Segoe UI, Arial, sans-serif" font-size="16">Path boundaries + blocked commands</text>
  <text x="820" y="444" fill="#E2E8F0" font-family="Segoe UI, Arial, sans-serif" font-size="16">Prompt artifacts + stdout/stderr + git diff</text>
  <text x="820" y="470" fill="#E2E8F0" font-family="Segoe UI, Arial, sans-serif" font-size="16">Rollback and audit-friendly runs</text>

  <g>
    <circle cx="1132" cy="168" r="10" fill="#61D9B8"/>
    <circle cx="1132" cy="392" r="10" fill="#4C8DFF"/>
    <circle cx="1132" cy="444" r="10" fill="#F59E0B"/>
  </g>
</svg>
